Coordinates
version=1
nRows=49
nColumns=12
inDegrees=yes

Units are S.I. units (second, meters, Newtons, ...)
Angles are in degrees

endheader
time	SC_y	SC_z	SC_x	AC_y	AC_z	AC_x	GH_y	GH_z	GH_yy	EL_x	PS_y
       0.0              -25.07         0.8253          46.61          58.21         -16.82          8.321          70.17          10.53         -44.34          17.13          28.06
    0.0448              -25.07         0.8246          46.61          58.21         -16.82          8.319          70.14          10.53         -44.31          17.14          28.05
   0.08961              -25.08         0.8239           46.6          58.21         -16.82          8.316          70.11          10.54         -44.28          17.15          28.05
    0.1344              -25.08         0.8231           46.6          58.21         -16.81          8.314          70.07          10.54         -44.25          17.17          28.05
    0.1792              -25.09         0.8223          46.59          58.21         -16.81          8.311          70.03          10.55         -44.22          17.18          28.05
     0.224              -25.09         0.8215          46.59          58.21         -16.81          8.308          69.99          10.56         -44.18           17.2          28.05
    0.2688               -25.1         0.8205          46.58          58.21          -16.8          8.305          69.95          10.57         -44.14          17.21          28.05
    0.3136               -25.1         0.8196          46.58          58.21          -16.8          8.302           69.9          10.57          -44.1          17.23          28.05
    0.3584              -25.11         0.8185          46.57          58.21         -16.79          8.299          69.85          10.58         -44.05          17.25          28.05
    0.4032              -25.12         0.8174          46.56          58.21         -16.79          8.295           69.8          10.59         -44.01          17.27          28.05
     0.448              -25.12         0.8161          46.56          58.21         -16.78          8.291          69.74           10.6         -43.95          17.29          28.05
    0.4928              -25.13         0.8148          46.55          58.21         -16.77          8.287          69.68          10.61          -43.9          17.31          28.05
    0.5377              -25.14         0.8134          46.54          58.21         -16.77          8.282          69.61          10.62         -43.84          17.34          28.05
    0.5825              -25.15         0.8119          46.53          58.21         -16.76          8.277          69.54          10.64         -43.77          17.37          28.05
    0.6273              -25.16         0.8102          46.52          58.21         -16.75          8.272          69.46          10.65          -43.7           17.4          28.05
    0.6721              -25.17         0.8084          46.51          58.21         -16.74          8.266          69.37          10.66         -43.63          17.43          28.05
    0.7169              -25.18         0.8065           46.5          58.21         -16.73          8.259          69.28          10.68         -43.55          17.46          28.05
    0.7617              -25.19         0.8044          46.49          58.22         -16.72          8.252          69.18           10.7         -43.46           17.5          28.04
    0.8065               -25.2         0.8021          46.47          58.22         -16.71          8.245          69.07          10.72         -43.36          17.54          28.04
    0.8513              -25.22         0.7995          46.46          58.22          -16.7          8.236          68.95          10.74         -43.25          17.59          28.04
    0.8961              -25.23         0.7967          46.44          58.22         -16.69          8.227          68.82          10.76         -43.13          17.64          28.04
    0.9409              -25.25         0.7937          46.42          58.22         -16.67          8.217          68.67          10.79          -43.0          17.69          28.04
    0.9857              -25.27         0.7903           46.4          58.22         -16.65          8.206          68.51          10.81         -42.86          17.75          28.04
      1.03              -25.29         0.7865          46.38          58.22         -16.64          8.194          68.33          10.85          -42.7          17.82          28.03
     1.075              -25.31         0.7824          46.35          58.22         -16.61           8.18          68.14          10.88         -42.52          17.89          28.03
      1.12              -25.34         0.7777          46.33          58.22         -16.59          8.165          67.91          10.92         -42.32          17.98          28.03
     1.165              -25.37         0.7725           46.3          58.22         -16.57          8.148          67.67          10.96          -42.1          18.07          28.03
      1.21               -25.4         0.7666          46.26          58.23         -16.54          8.129          67.39          11.01         -41.86          18.17          28.02
     1.255              -25.44           0.76          46.22          58.23         -16.51          8.107          67.07          11.06         -41.57          18.29          28.02
     1.299              -25.48         0.7525          46.18          58.23         -16.47          8.083          66.72          11.13         -41.26          18.43          28.02
     1.344              -25.53         0.7439          46.12          58.23         -16.43          8.055          66.31           11.2         -40.89          18.58          28.01
     1.389              -25.59          0.734          46.07          58.24         -16.38          8.022          65.84          11.28         -40.47          18.76          28.01
     1.434              -25.65         0.7226           46.0          58.24         -16.32          7.985           65.3          11.37         -39.99          18.96           28.0
     1.479              -25.73         0.7094          45.92          58.24         -16.26          7.942          64.67          11.48         -39.43          19.19          27.99
     1.523              -25.82         0.6939          45.83          58.25         -16.18          7.891          63.94          11.61         -38.77          19.47          27.99
     1.568              -25.92         0.6757          45.72          58.25         -16.09          7.832          63.07          11.76          -38.0           19.8          27.98
     1.613              -26.04          0.654          45.59          58.26         -15.99          7.761          62.04          11.94         -37.08          20.18          27.96
     1.658              -26.19          0.628          45.44          58.26         -15.86          7.676          60.81          12.15         -35.98          20.65          27.95
     1.703              -26.37         0.5966          45.25          58.27         -15.71          7.573          59.32          12.41         -34.65          21.21          27.93
     1.747              -26.58         0.5582          45.02          58.28         -15.52          7.447          57.49          12.72         -33.02          21.89          27.91
     1.792              -26.85         0.5108          44.74           58.3         -15.29          7.292          55.24          13.11         -31.01          22.74          27.89
     1.837              -27.19         0.4517          44.39          58.31          -15.0          7.099          52.44           13.6         -28.51          23.79          27.86
     1.882              -27.61         0.3773          43.94          58.34         -14.64          6.855           48.9          14.21         -25.35          25.12          27.82
     1.927              -28.15         0.2826          43.38          58.36         -14.17          6.546          44.41          14.99         -21.34           26.8          27.77
     1.971              -28.83         0.1615          42.66           58.4         -13.58           6.15          38.66          15.99          -16.2          28.96           27.7
     2.016              -29.72       0.006029          41.73          58.44         -12.82          5.641          31.28          17.27         -9.611          31.74          27.62
     2.061              -30.84        -0.1925          40.55           58.5         -11.85          4.992          21.85           18.9         -1.193          35.28          27.51
     2.106              -32.26        -0.4422          39.07          58.57         -10.63          4.175          9.999          20.95          9.391          39.73          27.38
     2.151              -33.98        -0.7465          37.25          58.65         -9.146           3.18         -4.446          23.46          22.29          45.15          27.22
